# xmcd
#
# Track frame offsets: 
#        150
#        17702
#        35250
#        55343
#        69743
#        95395
#        111236
#        131673
#        143759
#        156921
#
# Disc length: 2262 seconds
#
# Revision: 0
# Processed by: cddbd v1.5.2PL0 Copyright (c) Steve Scherf et al.
# Submitted via: ExactAudioCopy v0.95b4
#
DISCID=8808d40a
DTITLE=Lisa Lynn - Call Me Baby
DYEAR=2007
DGENRE=Blues
TTITLE0=Don't You Feel My Leg
TTITLE1=Sweet Dreams
TTITLE2=You Ain't Woman Enough
TTITLE3=Sweet Georgia Brown
TTITLE4=Do You Know What It Means To Miss New Orleans
TTITLE5=Sure Had A Wonderful Time Last Night
TTITLE6=At Last
TTITLE7=Am I Blue
TTITLE8=Wings Upon Your Horns
TTITLE9=Oh Darling
EXTD=
EXTT0=
EXTT1=
EXTT2=
EXTT3=
EXTT4=
EXTT5=
EXTT6=
EXTT7=
EXTT8=
EXTT9=
PLAYORDER=
